<?xml version="1.0" encoding="UTF-8"?>
<svg id="Layer_1" data-name="Layer 1" xmlns="http://www.w3.org/2000/svg" viewBox="0 0 109.14 107.89">
  <defs>
    <style>
      .cls-1 {
        fill: #fff;
      }
    </style>
  </defs>
  <path class="cls-1" d="M67.24,86.03c-.85-1.14-5.69-3.64-7.64-6.16-2.77-3.58-9.62-12.17-11.14-15.74-2.27-5.32-3.64-5.41-7.01-10.14-.73-1.02-.65-2.67-1.61-3.61-1.28-1.26-10.56-3.65-13.2-4.71-4.61-1.86-9.5-3.92-14.17-5.98-2.43-1.07-8.81-4.28-10.28-6.13-5.44-6.84.55-8.84,4.48-12.62s3.64-3.34,7.58-6.23c.98-.72,1.65-2.93,3.7-4.14,1.6-.94,5.61-2.11,7.46-2.32,1.28-.15,3.04.74,3.17.65.28-.19,2.46-3.97,4.18-5.16,4.69-3.28,5.56-1.36,9.66-1.53,4.54-.18,7.48-2.75,14.14-2.1,7.77.75,10.38,4.99,15.18,6.46,4.1,1.25,7.09.68,11.92,3.01,3.07,1.47,14.27,9.77,16.1,12.26,3.18,4.32,2.69,11.21,4.04,16.11,1.14,4.12,5.27,9.42,5.35,13.92.05,3.07-2.44,6.01-2.83,8.26-.43,2.46.2,5.04-.37,7.84-.6,2.95-3.91,6.75-4.16,8.59-.26,1.98,1.04,4.46.7,7.34-.47,3.99-3.72,12.93-7.03,15.37-2.16,1.59-4.73,1.53-6.3,2.66-1.33.95-2.06,3.37-4.27,4.69-6.85,4.09-13.15-2.27-14.99-8.66-.82-2.84-.99-9.67-2.65-11.9ZM89.48,33.59c-3.7-.52-9.43,0-13.44,0-.39,0-1.55,1.2-2.61.74-.28-1.49.68-1.81,1.8-2.3,6.99-3.04,17.1-2.63,23.56,1.55l-1.56-8.88c-1.88-1.61-21.03,3.69-24.32,5.01-2.11.85-11.97,6.84-12.93,6.1,5.67-9.55,17.89-11.23,27.78-13.64.75-.18,2.25-.22,2.07-1.27-1.97.19-6.7.33-4.5-2.64l3-.72c-4.02-3.92-12.61-7.87-18.22-7.07-5.14.73-13.61,12.16-17.59,15.65-.25-5.92,5.5-9.09,8.95-13.06l-4.83,1.12-1.14-1.86,9.7-5.24c-6.19-3.25-12.36-4.07-19.07-1.9-2.59.84-5.88,3.44-8.17,3.78-2.89.43,1.04-3.36-1.48-2.99l-8.98,9.68-1.11-3.72c-.17-.19-4.3.98-5,1.33-3.06,1.55-5.05,6.51-6.95,7.28-1.19.48-2.55-.65-2.92-.4-.27.19-1.66,4.94-2.67,6-1.12,1.19-3.93-.94-4.77,1.97-.54,1.24,2.81,4.74,3.66,5.13s2.33-1.83,3.71-1.16c-1.17,3.76,10.73,7.22,11.22,6.7v-3.73s2.19.04,2.19.04c.43,9.63,9.16,7.69,15.48,11.8l.99.1c.26-1.59.94-3.96,2.99-3.73-.86,5.95.63,8.76,3.75,13.42l5.84-12.43c1.64-3.75,5.43-6.59,3.62-.11-1.12,4-6.24,13.95-5.75,17.36.83,5.76,5.85-1.81,7.48-.33l-3.72,7.1c1.33,3.12,4.01,5.57,6.91,2.62.8-.81.75-2.12,1.61-3.04,4.3-4.61,9.55-9.03,16.1-9.66-2.71,2.33-6.17,3.17-9.2,5.34-2.45,1.76-4.1,4.42-6.85,5.84-1.1,1.19,1.77.86,1.86,1.86.07.73-2.39,3.48-3.62,3.46l-.12.99c2.09,7.92,9.84,6.61,14.91,10.52,3.89,3,6,10.83,12.35,10.86,6.86.04,9.55-14.16,8.26-19.54-1.46-6.09-17.18-9.04-16.1-10.39,4.66-1.67,8.9,1.22,13.04,3.02l.87-1.53,2.01-.02,2.73,3c2.46-6.93,5.05-10.47-3.32-13.46-4.93-1.76-9.86-.79-14.58-2.58,4.54-4.49,12.82.4,16.03.06,1.65-.18,2.84-2.7,5.6.31,3.7-6.9-6.63-5.81-5.58-11.2l4.85.74c-2.53-5.15-7.85-11.09-13.81-11.93ZM71.2,87.31c1.16,4.52,3.65,17.32,10.01,16.42.75-.11,3.48-1.71,3.81-2.23,1.05-1.62-3.9-4.48-5.25-5.98-2.79-3.09-3.98-7.02-8.57-8.21Z"/>
  <path class="cls-1" d="M55.51,14.94l-8.57,12.67c-3.76-1.63,4.3-14.36,8.57-12.67Z"/>
  <path class="cls-1" d="M27.15,17.17v13.43c-3.07-.11-3.03-4.8-3.03-7.09,0-2.61-.09-7.39,3.03-6.34Z"/>
  <path class="cls-1" d="M37.6,9.71l-3.35,12.67c-2.36.04-1.05-13.15,3.35-12.67Z"/>
  <path class="cls-1" d="M40.58,24.64c.27.33-2.29,6.61-2.65,8.16-.45,1.96-.31,3.98-.69,6.04-.15.79-.07,2.41-1.13,2.21-.28-5.72-.35-9.91,2.61-14.94.24-.41.7-2.87,1.85-1.47Z"/>
  <path class="cls-1" d="M92.83,40.31c.56,1.87-1.62,1.85-2.8,2.02-3.31.46-6.63-.17-9.88.96,1.46-4.48,9.17-2.54,12.68-2.98Z"/>
  <path class="cls-1" d="M95.07,44.79l-16.41,2.22c-.02-1,2.22-1.6,3-1.84,4.22-1.32,9.18-1.71,13.41-.38Z"/>
  <path class="cls-1" d="M79.4,15.69l-14.18,8.94c3.35-4.29,8.78-7.93,14.18-8.94Z"/>
  <path class="cls-1" d="M18.19,20.16c-.8,1.62-1.67,3.22-2.06,5.02-.44,2.04.5,5.83-1.66,6.91-2.41-1.8,1.68-13.98,3.72-11.93Z"/>
  <polygon class="cls-1" points="54.77 7.48 45.07 17.17 50.26 10.05 54.77 7.48"/>
  <path class="cls-1" d="M74.17,14.2c-1.92,2.41-5.36,4.68-8.21,5.96-1.27-1.25,6.37-6.82,8.21-5.96Z"/>
  <path class="cls-1" d="M77.9,62.68l-9.7,5.23c2.13-3.43,5.81-5.18,9.34-6.7l.36,1.47Z"/>
</svg>