<svg width="30" height="30" viewBox="0 0 30 30" fill="none" xmlns="http://www.w3.org/2000/svg">
<path d="M14.7282 1.23254H14.8514C17.1031 1.23254 18.8767 1.23254 20.2989 1.36195C21.7508 1.49259 22.9561 1.7662 24.0333 2.3886C25.3447 3.14577 26.4337 4.23477 27.1909 5.54618C27.8133 6.62335 28.0869 7.8287 28.2175 9.28055C28.3469 10.7028 28.3469 12.4763 28.3469 14.728V14.8513C28.3469 17.103 28.3469 18.8765 28.2175 20.2988C28.0869 21.7506 27.8133 22.956 27.1909 24.0332C26.4337 25.3446 25.3447 26.4336 24.0333 27.1907C22.9561 27.8131 21.7508 28.0868 20.2989 28.2174C18.8767 28.3468 17.1031 28.3468 14.8514 28.3468H14.7282C12.4765 28.3468 10.7029 28.3468 9.28067 28.2174C7.82883 28.0868 6.62347 27.8131 5.5463 27.1907C4.2349 26.4336 3.14589 25.3446 2.38872 24.0332C1.76632 22.956 1.49272 21.7506 1.36207 20.2988C1.23267 18.8765 1.23267 17.103 1.23267 14.8513V14.728C1.23267 12.4763 1.23267 10.7028 1.36207 9.28055C1.49272 7.8287 1.76632 6.62335 2.38872 5.54618C3.14589 4.23477 4.2349 3.14577 5.5463 2.3886C6.62347 1.7662 7.82883 1.49259 9.28067 1.36195C10.7029 1.23254 12.4765 1.23254 14.7282 1.23254ZM9.50251 3.81579C8.22198 3.93288 7.41841 4.15349 6.77876 4.52323C5.84205 5.06406 5.06419 5.84193 4.52335 6.77864C4.15361 7.41829 3.93177 8.22186 3.81592 9.50239C3.69883 10.8014 3.6976 12.4628 3.6976 14.7897C3.6976 17.1166 3.69883 18.7779 3.81592 20.077C3.933 21.3575 4.15361 22.1611 4.52335 22.8007C5.06419 23.7374 5.84205 24.5153 6.77876 25.0561C7.41841 25.4259 8.22198 25.6477 9.50251 25.7636C10.8015 25.8806 12.4629 25.8819 14.7898 25.8819C17.1167 25.8819 18.7781 25.8806 20.0771 25.7636C21.3576 25.6465 22.1612 25.4259 22.8008 25.0561C23.7375 24.5153 24.5154 23.7374 25.0562 22.8007C25.426 22.1611 25.6478 21.3575 25.7637 20.077C25.8808 18.7792 25.882 17.1166 25.882 14.7897C25.882 12.4628 25.8808 10.8014 25.7637 9.50239C25.6466 8.22186 25.426 7.41829 25.0562 6.77864C24.5154 5.84193 23.7375 5.06406 22.8008 4.52323C22.1612 4.15349 21.3576 3.93164 20.0771 3.81579C18.7793 3.69871 17.1167 3.69748 14.7898 3.69748C12.4629 3.69748 10.8015 3.69871 9.50251 3.81579ZM20.644 7.70546C20.644 7.02514 21.1986 6.47053 21.8789 6.47053C22.5593 6.47053 23.1139 7.02514 23.1139 7.70546C23.1139 8.38578 22.5593 8.94039 21.8789 8.94039C21.1986 8.94039 20.644 8.38578 20.644 7.70546ZM14.7898 10.476C14.2233 10.476 13.6624 10.5876 13.139 10.8044C12.6157 11.0212 12.1402 11.3389 11.7396 11.7395C11.339 12.14 11.0213 12.6156 10.8045 13.1389C10.5877 13.6623 10.4762 14.2232 10.4762 14.7897C10.4762 15.3561 10.5877 15.9171 10.8045 16.4404C11.0213 16.9638 11.339 17.4393 11.7396 17.8399C12.1402 18.2404 12.6157 18.5582 13.139 18.7749C13.6624 18.9917 14.2233 19.1033 14.7898 19.1033C15.9338 19.1033 17.031 18.6488 17.84 17.8399C18.649 17.0309 19.1034 15.9337 19.1034 14.7897C19.1034 13.6456 18.649 12.5484 17.84 11.7395C17.031 10.9305 15.9338 10.476 14.7898 10.476ZM8.01123 14.7897C8.01123 12.9919 8.7254 11.2677 9.99663 9.9965C11.2679 8.72528 12.992 8.01111 14.7898 8.01111C16.5876 8.01111 18.3117 8.72528 19.583 9.9965C20.8542 11.2677 21.5684 12.9919 21.5684 14.7897C21.5684 16.5875 20.8542 18.3116 19.583 19.5828C18.3117 20.8541 16.5876 21.5682 14.7898 21.5682C12.992 21.5682 11.2679 20.8541 9.99663 19.5828C8.7254 18.3116 8.01123 16.5875 8.01123 14.7897Z" fill="#FFF3DE"/>
</svg>
